<?xml version="1.0" encoding="UTF-8"?>
<svg version="1.1" xmlns="http://www.w3.org/2000/svg" width="500" height="500">
<path d="M0 0 C1.04285156 0.44988281 2.08570313 0.89976563 3.16015625 1.36328125 C9.99061931 4.53772667 9.99061931 4.53772667 12 9 C13.95021083 10.22527948 13.95021083 10.22527948 16 11 C16.66 11.33 17.32 11.66 18 12 C18 12.66 18 13.32 18 14 C18.66 14 19.32 14 20 14 C20 14.66 20 15.32 20 16 C20.66 16 21.32 16 22 16 C22 16.66 22 17.32 22 18 C22.66 18 23.32 18 24 18 C36.93112429 35.95513727 41.12871204 54.51524822 41.3125 76.3125 C41.34150391 77.47845703 41.37050781 78.64441406 41.40039062 79.84570312 C41.40876953 80.96525391 41.41714844 82.08480469 41.42578125 83.23828125 C41.44765503 84.754823 41.44765503 84.754823 41.4699707 86.30200195 C41 89 41 89 39.6496582 91.33129883 C35.39091526 94.01336904 31.10772962 93.53016479 26.1796875 93.4609375 C25.12468048 93.46002106 24.06967346 93.45910461 22.98269653 93.4581604 C20.75518284 93.45212311 18.52767731 93.43637338 16.30029297 93.41162109 C12.88088269 93.37506289 9.46255423 93.37060208 6.04296875 93.37109375 C3.88019892 93.36126471 1.71743646 93.34960864 -0.4453125 93.3359375 C-1.47238312 93.33371185 -2.49945374 93.33148621 -3.55764771 93.32919312 C-4.50558197 93.31643341 -5.45351624 93.30367371 -6.43017578 93.29052734 C-7.68448898 93.27909195 -7.68448898 93.27909195 -8.96414185 93.26742554 C-11 93 -11 93 -13 91 C-13.34716797 88.56079102 -13.34716797 88.56079102 -13.4921875 85.50390625 C-13.55792969 84.38693359 -13.62367188 83.26996094 -13.69140625 82.11914062 C-13.81197177 79.78350425 -13.92674028 77.44755999 -14.03515625 75.11132812 C-14.60231269 65.74254577 -15.64955653 56.51481602 -23 50 C-28.36549771 47.13471359 -34.71387777 45.24129934 -40.70703125 46.625 C-48.6074756 49.16329537 -51.71148817 51.91337174 -55.75 59.125 C-59.46456079 68.74040594 -58.49842057 79.685962 -54.4375 89 C-46.59581397 103.32837484 -30.80485008 113.48514587 -17.65234375 122.6328125 C-17.10707031 123.08398438 -16.56179688 123.53515625 -16 124 C-16 124.66 -16 125.32 -16 126 C-15.31035156 126.21785156 -14.62070312 126.43570313 -13.91015625 126.66015625 C-10.22788424 128.35548417 -7.44304011 130.7752588 -4.4375 133.4375 C-3.83268799 133.96593506 -3.22787598 134.49437012 -2.60473633 135.03881836 C-0.72906618 136.68434493 1.13622342 138.34102327 3 140 C3.59490234 140.5249707 4.18980469 141.04994141 4.80273438 141.59082031 C14.81388926 150.44166777 14.81388926 150.44166777 16 154 C16.66 154 17.32 154 18 154 C18 154.66 18 155.32 18 156 C18.66 156 19.32 156 20 156 C20 156.66 20 157.32 20 158 C20.66 158 21.32 158 22 158 C40.80369964 179.17388442 46.43630502 204.96802926 45.15527344 232.57373047 C44.32322911 245.57507729 40.27885152 255.70932978 34 267 C33.67 267.66 33.34 268.32 33 269 C32.34 269 31.68 269 31 269 C30.74605469 269.56460937 30.49210938 270.12921875 30.23046875 270.7109375 C21.99782194 286.02627411 3.99132383 294.68915969 -11.89697266 299.58447266 C-18.67871921 301.37940581 -25.55588626 301.37223154 -32.52685547 301.37060547 C-34.60079002 301.37494929 -36.67253783 301.41128484 -38.74609375 301.44921875 C-51.47628242 301.55859909 -63.42435309 299.17504726 -74.6875 292.9375 C-75.39245605 292.55392334 -76.09741211 292.17034668 -76.82373047 291.77514648 C-93.07860647 282.54336676 -105.09740394 266.76937577 -110.29296875 248.79296875 C-112.93654723 238.80966635 -114.19487301 229.23935687 -114.25 218.9375 C-114.270625 217.97005859 -114.29125 217.00261719 -114.3125 216.00585938 C-114.34212371 210.5958286 -114.13632412 206.63597424 -111 202 C-108.63454634 200.81727317 -107.16109609 200.85474131 -104.52197266 200.82299805 C-103.59405914 200.81016281 -102.66614563 200.79732758 -101.71011353 200.78410339 C-100.70491669 200.77671646 -99.69971985 200.76932953 -98.6640625 200.76171875 C-97.63316498 200.753647 -96.60226746 200.74557526 -95.54013062 200.73725891 C-93.35619797 200.72341355 -91.17224364 200.71269343 -88.98828125 200.70483398 C-85.64541783 200.68760523 -82.30353915 200.64372068 -78.9609375 200.59960938 C-76.84115312 200.58948407 -74.72136032 200.58096746 -72.6015625 200.57421875 C-71.60041412 200.55671066 -70.59926575 200.53920258 -69.56777954 200.52116394 C-62.69385839 200.5426901 -62.69385839 200.5426901 -59.37109375 202.73266602 C-57.82495899 205.28945973 -57.49115836 206.7320001 -57.4609375 209.703125 C-57.43773437 210.60160156 -57.41453125 211.50007812 -57.390625 212.42578125 C-57.38289063 213.82376953 -57.38289063 213.82376953 -57.375 215.25 C-57.24070988 224.79802723 -56.72703506 231.98215092 -51 240 C-51 240.66 -51 241.32 -51 242 C-50.34 242 -49.68 242 -49 242 C-49 242.66 -49 243.32 -49 244 C-40.59013735 247.00607856 -32.82812538 248.77104286 -24.25 245.4375 C-18.51580552 242.58562629 -14.45249119 237.89894357 -12 232 C-9.966492 220.815706 -11.56518888 211.91560875 -16.9765625 202.03125 C-18 200 -18 200 -18 198 C-18.66 198 -19.32 198 -20 198 C-20.515625 197.154375 -21.03125 196.30875 -21.5625 195.4375 C-23.99850091 191.5081652 -27.45688054 189.17604038 -31.171875 186.515625 C-31.77515625 186.01546875 -32.3784375 185.5153125 -33 185 C-33 184.34 -33 183.68 -33 183 C-33.66 183 -34.32 183 -35 183 C-35 182.34 -35 181.68 -35 181 C-35.66 181 -36.32 181 -37 181 C-37 180.34 -37 179.68 -37 179 C-37.556875 178.731875 -38.11375 178.46375 -38.6875 178.1875 C-41.21225334 176.89100504 -43.63714484 175.57523677 -46 174 C-46 173.34 -46 172.68 -46 172 C-47.08087891 171.64421875 -47.08087891 171.64421875 -48.18359375 171.28125 C-51.44157462 169.79911723 -53.47549939 167.96304849 -56.0625 165.5 C-58.9183279 162.78938369 -61.35772858 160.54775506 -65 159 C-65 158.34 -65 157.68 -65 157 C-65.54785156 156.76925781 -66.09570312 156.53851563 -66.66015625 156.30078125 C-69.66213914 154.63189928 -71.9173198 152.51892884 -74.4375 150.1875 C-75.36433594 149.33542969 -76.29117188 148.48335937 -77.24609375 147.60546875 C-79.87897381 145.1145028 -82.43725819 142.56274181 -85 140 C-86.01447557 139.05075863 -87.03153759 138.10427606 -88.05078125 137.16015625 C-95.83337664 129.83904972 -101.35303518 122.61599652 -106 113 C-106.41765625 112.14921875 -106.8353125 111.2984375 -107.265625 110.421875 C-116.34151277 89.96726226 -116.94734938 62.15314772 -109.45703125 41.28125 C-105.03973437 31.33345006 -99.54317715 20.94133144 -91 14 C-90.34 14 -89.68 14 -89 14 C-89 13.34 -89 12.68 -89 12 C-65.15884874 -10.55492345 -28.87933715 -12.49367458 0 0 Z " fill="#FDFDFD" transform="translate(294,114)"/>
<path d="M0 0 C0.96465179 -0.01591187 1.92930359 -0.03182373 2.92318726 -0.04821777 C4.48415634 -0.0485199 4.48415634 -0.0485199 6.07666016 -0.04882812 C7.14816315 -0.05644165 8.21966614 -0.06405518 9.32363892 -0.07189941 C11.59154936 -0.08271048 13.85950964 -0.08554946 16.12744141 -0.08105469 C19.59573655 -0.08008372 23.06181036 -0.12166812 26.52978516 -0.16601562 C28.73290554 -0.17122352 30.93603362 -0.1739108 33.13916016 -0.17382812 C34.69405655 -0.19842102 34.69405655 -0.19842102 36.28036499 -0.22351074 C40.90903926 -0.17915059 43.45421716 -0.12206128 47.3347168 2.55200195 C49.48245918 5.78365685 50.20448461 8.0789598 50.83837891 11.90039062 C50.95045181 12.54388962 51.06252472 13.18738861 51.17799377 13.85038757 C51.55270567 16.03732263 51.89685366 18.22793872 52.24072266 20.41992188 C52.51273316 22.06157065 52.78605627 23.70300237 53.06054688 25.34423828 C53.96395131 30.80219428 54.82265759 36.26679692 55.67822266 41.73242188 C55.98971395 43.70885234 56.30140199 45.68525181 56.61328125 47.66162109 C57.36358427 52.42246892 58.1099595 57.18391961 58.85406494 61.94573975 C59.19247943 64.11121853 59.53160733 66.2765836 59.87109375 68.44189453 C61.44290203 78.48519267 62.9753382 88.53276144 64.41650391 98.59570312 C66.45993702 112.82579359 68.62822654 126.97930953 71.35449219 141.09863281 C74.14488906 155.79074619 76.15330696 170.6147079 78.24072266 185.41992188 C79.78321678 179.59439393 80.90999343 173.81096611 81.82666016 167.85742188 C81.96844696 166.95683044 82.11023376 166.05623901 82.25631714 165.12835693 C82.71269982 162.22604391 83.16426488 159.32300465 83.61572266 156.41992188 C84.24169956 152.42487393 84.86997621 148.43018929 85.49853516 144.43554688 C85.65108765 143.46401672 85.80364014 142.49248657 85.96081543 141.49151611 C87.08140997 134.37404936 88.26723856 127.27044419 89.49072266 120.16992188 C90.72890603 112.93655692 91.71302359 105.70953632 92.55322266 98.41992188 C93.93123792 86.5447022 96.03686551 74.81871689 98.14700317 63.05697632 C100.32753499 50.89356144 102.32614095 38.74285623 103.91040039 26.48535156 C106.77424443 4.9098045 106.77424443 4.9098045 111.24072266 1.41992188 C113.66577206 0.20739717 115.2245506 0.28666764 117.93408203 0.2746582 C119.39569763 0.26508842 119.39569763 0.26508842 120.88684082 0.25532532 C121.94205933 0.25421249 122.99727783 0.25309967 124.08447266 0.25195312 C125.16450562 0.24862473 126.24453857 0.24529633 127.3572998 0.24186707 C129.64379449 0.23679813 131.93029658 0.23445873 134.21679688 0.23461914 C137.7261972 0.23243093 141.23528418 0.21426995 144.74462891 0.1953125 C146.96207574 0.192379 149.17952408 0.19039391 151.39697266 0.18945312 C152.97980042 0.17867485 152.97980042 0.17867485 154.59460449 0.16767883 C156.05622009 0.17229378 156.05622009 0.17229378 157.54736328 0.17700195 C158.40736938 0.17557693 159.26737549 0.17415192 160.15344238 0.17268372 C162.24072266 0.41992188 162.24072266 0.41992188 164.24072266 2.41992188 C165.31974042 10.46210397 163.44577801 18.21574933 161.55322266 25.98242188 C160.99139449 28.38922123 160.43287731 30.79679555 159.87744141 33.20507812 C159.59819824 34.41437988 159.31895508 35.62368164 159.03125 36.86962891 C157.84519629 42.19624812 156.85297657 47.55354896 155.86572266 52.91992188 C153.93555606 63.30327348 151.63960363 73.57515843 149.24072266 83.85742188 C146.83311192 94.1774165 144.57977891 104.47985068 142.74072266 114.91992188 C140.90589337 125.31282351 138.68723927 135.57989559 136.30322266 145.85742188 C136.13067963 146.6014325 135.9581366 147.34544312 135.78036499 148.11199951 C135.43374338 149.60590357 135.0870893 151.0998001 134.74040222 152.59368896 C134.48532646 153.69296722 134.48532646 153.69296722 134.22509766 154.81445312 C134.05581253 155.54359924 133.8865274 156.27274536 133.71211243 157.02398682 C129.8659796 173.63764303 126.43114214 190.33815164 123.13232422 207.06787109 C121.40616678 215.75217194 119.49129959 224.38868366 117.5480957 233.02661133 C115.63600821 241.55826591 113.8203701 250.1071138 112.05322266 258.66992188 C111.79951904 259.89662598 111.54581543 261.12333008 111.28442383 262.38720703 C110.26986843 267.31678041 109.26078347 272.24562041 108.33837891 277.19335938 C105.57816683 291.90454372 105.57816683 291.90454372 102.24072266 298.41992188 C99.21673728 300.43591213 98.60911763 300.67383943 95.21582031 300.71044922 C94.41133453 300.72320892 93.60684875 300.73596863 92.77798462 300.74911499 C91.47950089 300.75245346 91.47950089 300.75245346 90.15478516 300.75585938 C89.26085052 300.76251617 88.36691589 300.76917297 87.44589233 300.77603149 C85.5546067 300.78615657 83.66328536 300.79084856 81.77197266 300.79052734 C78.88335 300.79489522 75.9962619 300.83120083 73.10791016 300.86914062 C71.26937371 300.87500994 69.43083001 300.87897856 67.59228516 300.88085938 C66.7306778 300.89523041 65.86907043 300.90960144 64.98135376 300.92440796 C61.01524255 300.89430829 58.75865679 300.71721751 55.26000977 298.70898438 C53.03403486 296.18562072 52.31535782 294.59504735 51.58056641 291.33398438 C51.22998169 289.83327393 51.22998169 289.83327393 50.87231445 288.30224609 C50.64326416 287.2273291 50.41421387 286.15241211 50.17822266 285.04492188 C49.92274658 283.91715332 49.66727051 282.78938477 49.40405273 281.62744141 C47.71122396 274.01853709 46.29278186 266.37820536 44.98608398 258.6953125 C43.31863386 249.22571995 41.07203298 239.89984828 38.86572266 230.54492188 C36.01797299 218.46146918 33.37461331 206.38897568 31.17822266 194.16992188 C29.15469264 182.92384624 26.82627462 171.79800903 24.24072266 160.66992188 C24.06986145 159.93441101 23.89900024 159.19890015 23.72296143 158.44110107 C23.04459219 155.52315655 22.36591863 152.60528317 21.6864624 149.68759155 C17.91562797 133.4487355 14.5579444 117.12229957 11.34545898 100.76513672 C9.11415039 89.54838246 6.61621111 78.39065261 4.14407349 67.22512817 C1.56397093 55.56463789 -0.93511444 43.89922001 -3.21704102 32.17602539 C-4.22031937 27.03405562 -5.32150742 21.94492576 -6.57177734 16.85742188 C-7.66861213 12.20057475 -8.28977308 8.19438354 -7.75927734 3.41992188 C-5.50881004 0.32742699 -3.72573695 0.03695808 0 0 Z " fill="#FDFDFD" transform="translate(7.75927734375,110.580078125)"/>
<path d="M0 0 C1.15530212 -0.00860046 2.31060425 -0.01720093 3.50091553 -0.02606201 C5.41934265 -0.03245193 5.41934265 -0.03245193 7.37652588 -0.03897095 C8.72815158 -0.0468689 10.07977516 -0.05513765 11.43139648 -0.06375122 C15.8821612 -0.09001124 20.33293551 -0.10528476 24.78375244 -0.11953735 C26.3143947 -0.12489577 27.84503689 -0.13027328 29.37567902 -0.13566971 C35.7425594 -0.15730603 42.1094372 -0.17604278 48.47634506 -0.1872921 C57.60759684 -0.20353004 66.73842295 -0.23669489 75.86951423 -0.29369295 C82.28569541 -0.33238061 88.70176271 -0.35192348 95.11805749 -0.35721266 C98.95198323 -0.36086838 102.78545541 -0.37291151 106.61925507 -0.4053154 C110.22762444 -0.43537531 113.83526537 -0.44171596 117.44373322 -0.42993164 C119.3977998 -0.42960544 121.35182128 -0.45408633 123.3057251 -0.47930908 C132.86115574 -0.41117267 132.86115574 -0.41117267 135.96017456 2.44325256 C137.56141735 4.97527777 138.30327314 6.17578967 138.3213501 9.10775757 C138.3371109 9.85011154 138.3528717 10.59246552 138.36911011 11.35731506 C138.35898895 12.14999283 138.3488678 12.94267059 138.33843994 13.7593689 C138.34322357 14.59744583 138.3480072 15.43552277 138.35293579 16.29899597 C138.35633403 18.07674023 138.34713668 19.85454703 138.32623291 21.63217163 C138.29989968 24.28871558 138.3257484 26.94086217 138.35797119 29.59725952 C138.38975268 44.55778301 134.98984091 57.49295787 129.70172119 71.40878296 C127.76473215 76.58452079 126.06210684 81.84315658 124.31988525 87.08700562 C123.67726496 89.02021357 123.03145108 90.9523336 122.38531494 92.8843689 C120.04150272 99.91239244 117.79474605 106.96323648 115.63482666 114.04989624 C114.08163557 119.06953821 112.41095837 124.04852992 110.73687744 129.02890015 C110.38770264 130.07336304 110.03852783 131.11782593 109.67877197 132.19393921 C108.21310118 136.5767086 106.74309114 140.95789885 105.25640869 145.33358765 C102.64460676 153.05911182 100.23395229 160.8242955 97.99224854 168.66464233 C96.62036787 173.36132753 95.02460931 177.89790989 93.22906494 182.45077515 C90.68239568 188.96221035 88.70060144 195.55548965 86.79937744 202.27890015 C84.25060547 211.10585273 81.46864226 219.73233145 78.17437744 228.3062439 C76.06000976 233.89009673 74.37112669 239.52067563 72.79937744 245.27890015 C69.99982452 255.50718798 66.45071426 265.40014416 62.78375244 275.3453064 C61.4930614 278.85472961 60.25548428 282.36617934 59.12750244 285.9312439 C58.90779785 286.62556519 58.68809326 287.31988647 58.46173096 288.0352478 C57.91132374 289.80721406 57.37607775 291.58387114 56.84234619 293.3609314 C55.43225147 296.73289703 54.68087518 298.02110709 51.67437744 300.15390015 C47.99845435 300.75618106 44.35279967 300.68996165 40.63531494 300.6499939 C39.55811188 300.65144913 38.48090881 300.65290436 37.37106323 300.65440369 C35.09648938 300.65274486 32.82190428 300.64118549 30.54742432 300.62045288 C27.05540653 300.59145022 23.56490179 300.59985435 20.07281494 300.61288452 C17.86447419 300.60664876 15.65613825 300.59825909 13.44781494 300.5874939 C12.39887054 300.59042953 11.34992615 300.59336517 10.26919556 300.59638977 C9.30124054 300.5837056 8.33328552 300.57102142 7.33599854 300.55795288 C6.48202484 300.5525499 5.62805115 300.54714691 4.74819946 300.5415802 C4.0638382 300.41364578 3.37947693 300.28571136 2.67437744 300.15390015 C0.13004095 296.33739541 0.29531891 294.71162777 0.67437744 290.15390015 C1.56311568 286.70750643 2.72785631 283.3791593 3.92437744 280.02890015 C4.53548011 278.27689764 5.14483137 276.52428334 5.75250244 274.77108765 C6.22623291 273.40935425 6.22623291 273.40935425 6.70953369 272.02011108 C7.71936221 269.02026624 8.64888794 266.00393417 9.56500244 262.97421265 C12.11332532 254.6013283 15.0135839 246.35571545 17.89263916 238.09237671 C20.63158829 230.22140344 23.2581598 222.3437265 25.67340088 214.36581421 C27.48949641 208.53836231 29.53334387 202.78954801 31.54937744 197.02890015 C34.32270593 189.06161273 37.0718329 181.09407833 39.54937744 173.02890015 C41.4384198 166.87959996 43.46919304 160.78604328 45.56500244 154.7046814 C45.95965195 153.5592688 45.95965195 153.5592688 46.36227417 152.39071655 C47.68895358 148.54570433 49.02173976 144.70290774 50.36138916 140.86239624 C53.05946264 133.09294089 55.52206946 125.32303133 57.72662354 117.39535522 C59.2146753 112.30600354 61.06645834 107.36752701 62.92437744 102.40390015 C67.67690114 89.46779633 71.73651319 76.3567813 75.67437744 63.15390015 C76.67360157 59.82033393 77.67389059 56.48708759 78.67437744 53.15390015 C77.6161528 53.15247513 76.55792816 53.15105011 75.46763611 53.14958191 C65.50552952 53.1329283 55.54383228 53.09020508 45.58194256 53.02180958 C40.46010647 52.98748639 35.33857033 52.96242133 30.21661377 52.95834351 C25.2756063 52.95407195 20.3352761 52.92570468 15.39447975 52.88046837 C13.50743361 52.86745666 11.62030657 52.86319863 9.73322105 52.86774635 C7.09396175 52.87262644 4.45670183 52.84667771 1.81768799 52.81332397 C1.03366104 52.82194962 0.24963409 52.83057526 -0.55815125 52.83946228 C-2.7379303 52.7931366 -2.7379303 52.7931366 -6.32562256 52.15390015 C-8.88748307 49.21670951 -9.70070851 46.75519494 -9.71380615 42.90194702 C-9.72326263 42.0976123 -9.73271912 41.29327759 -9.74246216 40.46456909 C-9.73638947 39.60923584 -9.73031677 38.75390259 -9.72406006 37.87265015 C-9.72693024 36.98154541 -9.72980042 36.09044067 -9.73275757 35.17233276 C-9.73479418 33.29297244 -9.72929254 31.41359072 -9.71673584 29.53427124 C-9.7006763 26.66350749 -9.71659805 23.79415155 -9.73577881 20.9234314 C-9.73379631 19.09400122 -9.72995248 17.26457191 -9.72406006 15.43515015 C-9.73013275 14.57981689 -9.73620544 13.72448364 -9.74246216 12.8432312 C-9.65234825 5.17846264 -8.24826305 0.04549576 0 0 Z " fill="#FDFDFD" transform="translate(358.32562255859375,110.84609985351563)"/>
<path d="M0 0 C0 3.58912412 -0.66436554 4.10857029 -3 6.6875 C-3.556875 7.31011719 -4.11375 7.93273437 -4.6875 8.57421875 C-5.120625 9.04472656 -5.55375 9.51523438 -6 10 C-6.99 9.34 -7.98 8.68 -9 8 C-7.68 7.34 -6.36 6.68 -5 6 C-5 5.34 -5 4.68 -5 4 C-3.37373596 2.61767557 -1.7074998 1.28062485 0 0 Z " fill="#E2E1E2" transform="translate(210,122)"/>
</svg>
